<svg width="15" height="15" viewBox="0 0 15 15" fill="none" xmlns="http://www.w3.org/2000/svg">
<g clip-path="url(#clip0_2799_2910)">
<path d="M11.25 6.25C11.25 4.92392 10.7232 3.65215 9.78553 2.71447C8.84785 1.77678 7.57608 1.25 6.25 1.25C4.92392 1.25 3.65215 1.77678 2.71447 2.71447C1.77678 3.65215 1.25 4.92392 1.25 6.25C1.25 9.37063 4.71188 12.6206 5.87438 13.6244C5.98273 13.7056 6.11455 13.7495 6.25 13.7494M11.25 13.75V11.875M9.375 13.75C9.20924 13.75 9.05027 13.6842 8.93306 13.5669C8.81585 13.4497 8.75 13.2908 8.75 13.125V10.625C8.74998 10.5221 8.77536 10.4208 8.82388 10.3301C8.8724 10.2394 8.94255 10.1621 9.02812 10.105L10.9031 8.855C11.0058 8.78648 11.1265 8.74991 11.25 8.74991C11.3735 8.74991 11.4942 8.78648 11.5969 8.855L13.4719 10.105C13.5574 10.1621 13.6276 10.2394 13.6761 10.3301C13.7246 10.4208 13.75 10.5221 13.75 10.625V13.125C13.75 13.2908 13.6842 13.4497 13.5669 13.5669C13.4497 13.6842 13.2908 13.75 13.125 13.75H9.375ZM8.125 6.25C8.125 7.28553 7.28553 8.125 6.25 8.125C5.21447 8.125 4.375 7.28553 4.375 6.25C4.375 5.21447 5.21447 4.375 6.25 4.375C7.28553 4.375 8.125 5.21447 8.125 6.25Z" stroke="black" stroke-width="1.25" stroke-linecap="round" stroke-linejoin="round"/>
</g>
<defs>
<clipPath id="clip0_2799_2910">
<rect width="15" height="15" fill="white"/>
</clipPath>
</defs>
</svg>
