<svg width="36" height="36" viewBox="0 0 36 36" fill="none" xmlns="http://www.w3.org/2000/svg">
<path d="M17.748 0.5C27.2739 0.500026 34.9961 8.22221 34.9961 17.748C34.9961 27.2739 27.2739 34.9961 17.748 34.9961C8.22221 34.9961 0.500026 27.2739 0.5 17.748C0.5 8.22219 8.22219 0.5 17.748 0.5Z" fill="white" stroke="#A5929E"/>
<path d="M20.706 11.3879H22.924V7.83789H19.523C19.523 7.83789 17.453 7.83789 16.121 9.46489C16.121 9.46489 15.234 10.3529 15.234 12.7189V15.2329H11.98V18.9309H15.234V28.3959H19.079V18.9309H22.333L22.776 15.2329H19.08V12.8669C19.08 12.5709 19.228 11.2399 20.707 11.3879" fill="black"/>
</svg>
