<svg width="36" height="36" viewBox="0 0 36 36" fill="none" xmlns="http://www.w3.org/2000/svg">
<path d="M18.244 0.5C27.7699 0.500026 35.4921 8.22221 35.4921 17.748C35.492 27.2739 27.7698 34.9961 18.244 34.9961C8.71818 34.9961 0.995997 27.2739 0.995972 17.748C0.995972 8.22219 8.71816 0.5 18.244 0.5Z" fill="white" stroke="#A5929E"/>
<path d="M22.3851 7.39453H14.3981C10.8481 7.39453 7.89111 10.2045 7.89111 13.7545V21.7405C7.89111 25.2905 10.8491 28.1005 14.3981 28.1005H22.3851C25.9351 28.1005 28.8921 25.2905 28.8921 21.7405V13.7545C28.8921 10.2045 25.9341 7.39453 22.3851 7.39453ZM26.8221 21.0015C26.8221 23.8115 24.4551 26.1775 21.6451 26.1775H15.1381C12.3281 26.1775 9.96111 23.8115 9.96111 21.0015V14.4935C9.96111 11.6835 12.3281 9.31753 15.1381 9.31753H21.6451C24.4551 9.31753 26.8221 11.6835 26.8221 14.4935V21.0015ZM18.6871 12.2755C15.5811 12.2755 13.2151 14.6415 13.2151 17.7475C13.2151 20.7055 15.7291 23.2195 18.6871 23.2195C21.7931 23.2195 24.1601 20.7055 24.1601 17.7475C24.1601 14.7895 21.6451 12.2755 18.6871 12.2755ZM18.6871 21.0015C16.9131 21.0015 15.4341 19.5215 15.4341 17.7475C15.4341 15.9735 16.9131 14.4935 18.6871 14.4935C20.4611 14.4935 21.9411 15.9735 21.9411 17.7475C21.9411 19.5215 20.4621 21.0015 18.6871 21.0015ZM23.7161 13.6065C24.4561 13.6065 25.1951 13.0145 25.1951 12.2755C25.1951 11.5355 24.6031 10.9445 23.7151 10.9445C22.9761 10.9445 22.2371 11.5355 22.2371 12.2745C22.3851 13.0145 22.9771 13.6065 23.7161 13.6065Z" fill="black"/>
</svg>
