<svg width="36" height="36" viewBox="0 0 36 36" fill="none" xmlns="http://www.w3.org/2000/svg">
<path d="M18.244 0.5C27.7289 0.500026 35.4921 8.26321 35.4921 17.748C35.492 27.2329 27.7288 34.9961 18.244 34.9961C8.7582 34.9961 0.995998 27.2329 0.995972 17.748C0.995972 8.26319 8.75916 0.5 18.244 0.5Z" fill="white" stroke="#A5929E"/>
<path d="M26.0822 11.6836C26.0822 12.1276 25.9342 12.7196 25.7872 13.1636C24.8992 17.3036 24.1602 21.4456 23.2722 25.5866C23.1242 25.8826 23.1252 26.0306 22.9772 26.3266C22.8292 26.6216 22.3852 26.7696 22.0892 26.6216C21.7932 26.4736 21.6452 26.4736 21.4982 26.3256C20.1662 25.2906 18.9832 24.4036 17.6522 23.3676C17.5042 23.2206 17.3562 23.2206 17.3562 23.3676L15.4342 25.2906C15.1382 25.5866 14.8422 25.5866 14.5462 25.5866C14.2512 25.5866 14.2512 25.4386 14.1032 25.2906C13.8072 24.1076 13.3632 22.7766 12.9192 21.4456L12.4762 20.1146C12.3282 19.9666 12.3282 19.8186 12.1802 19.8186C10.9972 19.5226 9.66621 19.0786 8.33521 18.6356C8.18721 18.4876 8.03921 18.4876 7.89121 18.4876C7.59521 18.1916 7.59521 17.8956 7.74321 17.7476C7.89121 17.5996 8.18721 17.4516 8.48321 17.3036C10.1092 16.5646 11.8842 15.9736 13.6592 15.2336C17.3959 13.7293 21.1426 12.2503 24.8992 10.7966H25.0472C25.4912 10.5006 26.0822 10.7966 26.0822 11.6836ZM14.3982 24.4036C14.5462 24.4036 14.5462 24.4036 14.3982 24.4036C14.5462 23.3676 14.6942 22.4806 14.6942 21.5936C14.6942 21.2976 14.8422 21.1496 14.9902 21.0016C17.3562 18.7836 19.8702 16.5646 22.2372 14.1986L22.6812 13.7546C22.8292 13.6066 22.8292 13.6066 22.8292 13.4586C22.6812 13.3106 22.6812 13.3106 22.5332 13.3106C22.3852 13.3106 22.2372 13.4586 21.9412 13.4586C18.9832 15.3816 16.0252 17.3046 12.9192 19.2266C12.7712 19.3746 12.7712 19.3746 12.7712 19.5226C13.0672 20.7056 13.5112 21.8886 13.8072 22.9246C14.1032 23.6646 14.2512 24.1076 14.3982 24.4036Z" fill="black"/>
</svg>
