<svg width="36" height="36" viewBox="0 0 36 36" fill="none" xmlns="http://www.w3.org/2000/svg">
<path d="M18.2351 0.5C27.7209 0.500025 35.4832 8.26319 35.4832 17.748C35.4831 27.2329 27.7209 34.9961 18.2351 34.9961C8.75027 34.9961 0.987087 27.2329 0.987061 17.748C0.987061 8.26319 8.75025 0.5 18.2351 0.5Z" fill="white" stroke="#A5929E"/>
<path d="M35.4831 17.748C35.4831 27.233 27.7211 34.996 18.2351 34.996C8.75006 34.996 0.987061 27.233 0.987061 17.748C0.987061 8.263 8.75006 0.5 18.2351 0.5C27.7201 0.5 35.4831 8.263 35.4831 17.748Z" stroke="#A5929E"/>
<path d="M19.877 7.2041C20.5097 7.21152 21.1433 7.21014 21.7705 7.20898C22.1466 8.63233 22.948 9.78458 24.1992 10.6201L24.3066 10.6914C24.3106 10.6952 24.3144 10.6994 24.3184 10.7031C24.3195 10.7042 24.3211 10.705 24.3223 10.7061C24.3925 10.8207 24.4756 10.9059 24.5459 10.9678C24.5913 11.0077 24.6374 11.0424 24.6709 11.0684L24.7529 11.1338C25.3971 11.6811 26.1254 12.1015 26.96 12.3223C26.9589 13.0197 26.9575 13.7215 26.9619 14.4229C25.5171 14.3445 24.1146 13.9065 22.8828 13.1475L22.6406 12.9922C22.6313 12.9834 22.5906 12.9438 22.543 12.9092C22.4932 12.873 22.3957 12.8115 22.2598 12.7939C22.1076 12.7743 21.9676 12.8172 21.8574 12.8906L21.8564 12.8916C21.5938 13.0682 21.5976 13.351 21.6006 13.4219C21.6025 13.4664 21.6088 13.5103 21.6104 13.5225C21.6113 13.5303 21.6112 13.5347 21.6113 13.5361V20.7891C21.6113 21.1825 21.601 21.5554 21.5518 21.9189C20.9549 26.2754 16.37 28.8386 12.3418 27.0645C12.0542 26.9369 11.8005 26.7948 11.4863 26.6357L11.375 26.5479C11.3533 26.5066 11.3267 26.463 11.29 26.4229C11.2722 26.4033 11.2523 26.3871 11.2334 26.3711C11.2255 26.359 11.2204 26.3461 11.2129 26.3359C11.1733 26.2828 11.1301 26.2427 11.1182 26.2314C11.1163 26.2296 11.1147 26.2279 11.1133 26.2266C9.95527 24.8338 9.42682 23.2608 9.57422 21.5068L9.6123 21.1523C9.91406 18.8873 11.1101 17.2285 13.1338 16.1396H13.1348C13.8607 15.7483 14.6479 15.5344 15.4814 15.4443C15.4807 16.0719 15.48 16.7055 15.4844 17.3379C13.0195 17.0164 10.9195 19.1242 11.2998 21.6045L11.3467 21.8574C11.5832 22.9368 12.2008 23.7811 13.1982 24.2998L13.2207 24.3193C14.7102 26.2471 17.2797 25.987 18.6172 24.793C19.5009 24.0054 19.8849 22.9844 19.8838 21.8389C19.8789 16.9631 19.8835 12.0805 19.877 7.2041Z" fill="black" stroke="black"/>
<path d="M22.6123 14.1475C22.655 14.172 22.6982 14.1958 22.7412 14.2197C22.7362 14.2537 22.7333 14.2857 22.7324 14.3154C22.7311 14.3618 22.734 14.4036 22.7354 14.4248C22.7362 14.4376 22.736 14.4429 22.7363 14.4492C22.7364 14.4509 22.7373 14.4523 22.7373 14.4531L22.7324 21.9688C22.7293 25.2697 20.3183 28.0628 17.0605 28.4961C16.7177 28.5416 16.3817 28.5608 16.0527 28.5596C19.2778 28.1112 22.0579 25.6008 22.543 22.0557V22.0547C22.6016 21.6235 22.6123 21.1961 22.6123 20.79C22.6111 18.5753 22.6113 16.3611 22.6123 14.1475ZM28.0859 12.5215C28.0825 13.4665 28.0826 14.4115 28.0859 15.3564C27.9494 15.349 27.8134 15.3381 27.6777 15.3242C27.7107 15.3026 27.7446 15.2789 27.7754 15.248C27.9671 15.0563 27.9644 14.8041 27.9639 14.7217V14.7197L27.9609 12.5088C28.0021 12.5134 28.0438 12.5179 28.0859 12.5215Z" fill="black" stroke="black"/>
<path d="M22.158 6.70788C21.328 6.70788 20.498 6.71488 19.668 6.70188C19.442 6.69788 19.378 6.75388 19.378 6.98888C19.385 11.9389 19.381 16.8889 19.385 21.8379C19.386 22.8599 19.047 23.7369 18.285 24.4179C17.108 25.4679 14.859 25.6679 13.587 23.9749C14.28 24.2559 14.987 24.3749 15.731 24.2059C17.156 23.8819 18.234 22.5919 18.243 21.1289C18.259 18.8189 18.247 16.5099 18.247 14.2009C18.247 11.4689 18.249 8.73688 18.242 6.00488C18.242 5.80088 18.295 5.75588 18.493 5.75788C19.625 5.76721 20.757 5.76721 21.889 5.75788C22.069 5.75788 22.127 5.80488 22.116 5.98488C22.101 6.21688 22.106 6.45088 22.178 6.67788L22.158 6.70588V6.70788Z" fill="black"/>
<path d="M15.1562 14.4746C14.2958 14.5889 13.4549 14.8296 12.6602 15.2568C10.3692 16.491 8.96837 18.4208 8.62109 21.0195C8.54772 21.5699 8.53121 22.1064 8.57031 22.6279C8.34141 21.67 8.35107 20.6264 8.62598 19.4951C9.26506 16.8667 10.9961 15.2582 13.6641 14.6182H13.665C14.1483 14.5016 14.6459 14.4614 15.1562 14.4746Z" fill="black" stroke="#A5929E"/>
<path d="M12.2891 21.457C12.012 19.6547 13.5138 18.1191 15.3096 18.3232C13.6825 18.674 12.4676 20.0462 12.3789 21.8555C12.3729 21.8351 12.3669 21.8146 12.3613 21.7939L12.3242 21.6426L12.2891 21.457ZM16.6104 15.4238C16.6034 16.3705 16.6077 17.3231 16.6055 18.2627C16.4998 18.2508 16.395 18.2421 16.291 18.2383C16.3928 18.1403 16.4411 18.0271 16.4619 17.9434C16.4849 17.8509 16.4869 17.7607 16.4863 17.6963V17.6943C16.4773 16.9368 16.4816 16.18 16.4824 15.416C16.5243 15.4179 16.5669 15.4213 16.6104 15.4238Z" fill="black" stroke="#A5929E"/>
<mask id="path-8-inside-1_2799_2933" fill="white">
<path d="M27.4512 11.9197C26.5492 11.7577 25.7702 11.3417 25.0772 10.7537C24.9472 10.6437 24.7912 10.5557 24.7192 10.3877C25.2392 10.6427 25.7642 10.8857 26.3392 10.9977C26.6432 11.0577 26.9472 11.1197 27.2572 11.1097C27.4342 11.1037 27.4782 11.1697 27.4652 11.3327C27.4502 11.5277 27.4552 11.7237 27.4512 11.9197ZM10.8232 26.7417C10.9202 26.7157 10.9442 26.7777 10.9572 26.8537C10.9042 26.8257 10.8372 26.8167 10.8232 26.7417Z"/>
</mask>
<path d="M27.4512 11.9197C26.5492 11.7577 25.7702 11.3417 25.0772 10.7537C24.9472 10.6437 24.7912 10.5557 24.7192 10.3877C25.2392 10.6427 25.7642 10.8857 26.3392 10.9977C26.6432 11.0577 26.9472 11.1197 27.2572 11.1097C27.4342 11.1037 27.4782 11.1697 27.4652 11.3327C27.4502 11.5277 27.4552 11.7237 27.4512 11.9197ZM10.8232 26.7417C10.9202 26.7157 10.9442 26.7777 10.9572 26.8537C10.9042 26.8257 10.8372 26.8167 10.8232 26.7417Z" fill="black"/>
<path d="M27.4512 11.9197L27.2745 12.9039L28.4271 13.111L28.451 11.9401L27.4512 11.9197ZM25.0772 10.7537L25.7242 9.99119L25.7232 9.99031L25.0772 10.7537ZM24.7192 10.3877L25.1595 9.48984L22.7374 8.30208L23.8001 10.7816L24.7192 10.3877ZM26.3392 10.9977L26.5329 10.0166L26.5304 10.0161L26.3392 10.9977ZM27.2572 11.1097L27.2895 12.1092L27.2911 12.1091L27.2572 11.1097ZM27.4652 11.3327L26.4684 11.2532L26.4682 11.256L27.4652 11.3327ZM10.8232 26.7417L10.5643 25.7758L9.6704 26.0154L9.84022 26.9252L10.8232 26.7417ZM10.9572 26.8537L10.4901 27.7379L12.2852 28.6862L11.9429 26.6851L10.9572 26.8537ZM27.4512 11.9197L27.628 10.9354C26.9312 10.8103 26.3096 10.4879 25.7242 9.99119L25.0772 10.7537L24.4303 11.5162C25.2309 12.1955 26.1673 12.7051 27.2745 12.9039L27.4512 11.9197ZM25.0772 10.7537L25.7232 9.99031C25.6947 9.96625 25.6682 9.94494 25.646 9.92751C25.625 9.91095 25.6028 9.8939 25.5887 9.88297C25.5725 9.87039 25.5617 9.86198 25.5527 9.85474C25.5441 9.84778 25.5399 9.8442 25.5385 9.84295C25.5322 9.83734 25.5934 9.88889 25.6384 9.99378L24.7192 10.3877L23.8001 10.7816C23.9171 11.0545 24.0923 11.234 24.2145 11.3419C24.2735 11.3941 24.3307 11.4383 24.3645 11.4645C24.4059 11.4966 24.4194 11.507 24.4313 11.5171L25.0772 10.7537ZM24.7192 10.3877L24.2789 11.2855C24.7989 11.5405 25.4297 11.8393 26.1481 11.9792L26.3392 10.9977L26.5304 10.0161C26.0988 9.93207 25.6796 9.74487 25.1595 9.48984L24.7192 10.3877ZM26.3392 10.9977L26.1456 11.9788C26.424 12.0337 26.8444 12.1235 27.2895 12.1092L27.2572 11.1097L27.225 10.1102C27.0501 10.1159 26.8625 10.0817 26.5329 10.0166L26.3392 10.9977ZM27.2572 11.1097L27.2911 12.1091C27.2816 12.1094 27.2069 12.1123 27.1021 12.0836C26.9842 12.0513 26.819 11.9758 26.6788 11.815C26.5425 11.6588 26.4947 11.496 26.478 11.4001C26.4697 11.3528 26.4678 11.3157 26.4675 11.2936C26.4671 11.2712 26.4681 11.2568 26.4684 11.2532L27.4652 11.3327L28.4621 11.4122C28.4703 11.3087 28.5089 10.8707 28.1862 10.5006C27.8398 10.1034 27.3713 10.1053 27.2234 10.1103L27.2572 11.1097ZM27.4652 11.3327L26.4682 11.256C26.4504 11.4866 26.4542 11.7665 26.4515 11.8993L27.4512 11.9197L28.451 11.9401C28.4563 11.6809 28.45 11.5688 28.4623 11.4094L27.4652 11.3327ZM10.8232 26.7417L11.0821 27.7076C11.0068 27.7278 10.8615 27.7544 10.6799 27.7166C10.4798 27.6751 10.3071 27.5701 10.1814 27.4317C10.0695 27.3084 10.0201 27.187 9.99989 27.1288C9.9791 27.069 9.97203 27.0251 9.97156 27.0223L10.9572 26.8537L11.9429 26.6851C11.9377 26.6546 11.898 26.3471 11.6621 26.0872C11.5167 25.9271 11.319 25.8067 11.0867 25.7584C10.8729 25.714 10.6882 25.7426 10.5643 25.7758L10.8232 26.7417ZM10.9572 26.8537L11.4244 25.9695C11.39 25.9513 11.3605 25.9379 11.342 25.9297C11.3326 25.9255 11.3244 25.922 11.319 25.9197C11.3163 25.9185 11.3138 25.9175 11.3121 25.9168C11.3102 25.9159 11.3092 25.9155 11.3083 25.9151C11.294 25.909 11.3381 25.9265 11.3914 25.9586C11.4517 25.9949 11.5477 26.0632 11.6359 26.178C11.7283 26.2984 11.7826 26.4315 11.8063 26.5582L10.8232 26.7417L9.84022 26.9252C9.87088 27.0894 9.93886 27.2518 10.0493 27.3957C10.1557 27.5343 10.2744 27.6206 10.3599 27.6721C10.4382 27.7192 10.5099 27.7489 10.5235 27.7547C10.5569 27.769 10.5229 27.7552 10.4901 27.7379L10.9572 26.8537Z" fill="#A5929E" mask="url(#path-8-inside-1_2799_2933)"/>
</svg>
