<svg width="15" height="15" viewBox="0 0 15 15" fill="none" xmlns="http://www.w3.org/2000/svg">
<path d="M6.25 1.25H8.75M7.5 8.75V6.25M2.5 8.125C2.65304 6.90998 3.24666 5.79338 4.16828 4.98696C5.0899 4.18055 6.27542 3.7404 7.5 3.75C8.30878 3.75086 9.10528 3.9479 9.82117 4.32423C10.5371 4.70055 11.151 5.24492 11.6103 5.91064C12.0696 6.57636 12.3605 7.34356 12.4581 8.14642C12.5558 8.94929 12.4572 9.76386 12.1708 10.5202C11.8845 11.2766 11.4189 11.9523 10.8141 12.4892C10.2092 13.0261 9.48317 13.4083 8.69816 13.603C7.91316 13.7977 7.09265 13.799 6.30702 13.6069C5.52139 13.4148 4.79409 13.035 4.1875 12.5L2.5 11M5.625 10.625H2.5V13.75" stroke="black" stroke-width="1.25" stroke-linecap="round" stroke-linejoin="round"/>
</svg>
