<svg width="36" height="36" viewBox="0 0 36 36" fill="none" xmlns="http://www.w3.org/2000/svg">
<path d="M17.748 0.5C27.2319 0.500026 34.9961 8.26322 34.9961 17.748C34.9961 27.2328 27.2319 34.9961 17.748 34.9961C8.26222 34.9961 0.500026 27.2329 0.5 17.748C0.5 8.26321 8.26417 0.5 17.748 0.5Z" fill="white" stroke="#A5929E"/>
<path d="M6.70804 28.3547L7.29504 25.1217C7.39104 24.5977 7.49504 24.0737 7.57704 23.5477C7.58552 23.4302 7.55608 23.3131 7.49304 23.2137C6.47704 21.4837 5.93904 19.6177 5.91604 17.6237C5.88604 14.8557 6.74604 12.3707 8.53204 10.2237C10.562 7.78366 13.191 6.35466 16.376 5.99566C22.782 5.27166 28.309 9.57066 29.386 15.3537C30.546 21.5867 26.379 27.5667 20.042 28.7517C17.313 29.2617 14.714 28.8857 12.238 27.6517C12.0951 27.583 11.9353 27.5573 11.778 27.5777C10.178 27.8227 8.57804 28.0827 6.98004 28.3377C6.90604 28.3487 6.83004 28.3487 6.70804 28.3547ZM9.07004 26.1047C9.18004 26.0957 9.23704 26.0967 9.29204 26.0857C10.199 25.9197 11.106 25.7437 12.016 25.5907C12.1783 25.5659 12.3443 25.5943 12.489 25.6717C14.7157 26.993 17.1064 27.419 19.661 26.9497C25.473 25.8817 29.03 20.0267 27.231 14.4987C25.706 9.81866 20.828 7.00666 15.841 7.93366C9.14804 9.17966 5.68404 16.6127 9.17804 22.3147C9.57504 22.9627 9.67504 23.5147 9.47404 24.2077C9.29704 24.8147 9.20704 25.4477 9.07004 26.1067V26.1047Z" fill="black"/>
<path d="M12.1201 14.7228C12.1571 13.6828 12.5751 12.8358 13.3941 12.1828C13.5082 12.0881 13.6415 12.0191 13.7847 11.9806C13.928 11.9421 14.0779 11.935 14.2241 11.9598C14.2991 11.9718 14.3771 11.9948 14.4511 11.9878C14.9551 11.9338 15.1881 12.1988 15.3261 12.6398C15.5231 13.2648 15.7291 13.8898 15.9881 14.4898C16.1701 14.9148 16.0571 15.2328 15.7781 15.5378C15.5921 15.7398 15.3998 15.9351 15.2011 16.1238C15.0231 16.2918 14.9951 16.4668 15.1061 16.6798C15.9621 18.3108 17.2291 19.5198 18.9331 20.2828C19.1401 20.3748 19.3221 20.3428 19.4781 20.1778C19.7891 19.8478 20.1131 19.5278 20.4081 19.1858C20.5981 18.9648 20.8021 18.8908 21.0581 19.0278C21.8451 19.4478 22.6321 19.8678 23.4081 20.3078C23.5051 20.3618 23.5891 20.5378 23.5831 20.6508C23.5351 21.4328 23.2851 22.1098 22.5411 22.5328C21.6541 23.0378 20.7531 23.1728 19.7491 22.8648C17.0211 22.0268 14.9531 20.3858 13.4541 18.0198C12.9441 17.2168 12.4211 16.4218 12.2341 15.4728C12.1841 15.2248 12.1581 14.9738 12.1201 14.7248V14.7228Z" fill="black"/>
</svg>
