<svg width="36" height="36" viewBox="0 0 36 36" fill="none" xmlns="http://www.w3.org/2000/svg">
<path d="M17.748 0.5C27.2729 0.500026 34.9951 8.22219 34.9951 17.748C34.9951 27.2739 27.2728 34.9961 17.748 34.9961C8.22221 34.9961 0.500026 27.2739 0.5 17.748C0.5 8.22219 8.22219 0.5 17.748 0.5Z" fill="white" stroke="#A5929E"/>
<path d="M26.178 8.87402H9.02101C5.76801 8.87402 4.43701 11.536 4.43701 14.642V20.706C4.43701 23.96 5.91501 26.622 9.16901 26.622H26.029C29.284 26.622 30.467 23.96 30.467 20.854V14.642C30.319 11.536 29.433 8.87402 26.178 8.87402ZM14.788 21.445V14.346L21.888 17.896L14.788 21.445Z" fill="black"/>
</svg>
