<svg width="32" height="32" viewBox="0 0 32 32" fill="none" xmlns="http://www.w3.org/2000/svg">
<g clip-path="url(#clip0_2729_18597)">
<path d="M15.679 31.357C24.302 31.357 31.357 24.302 31.357 15.679C31.357 7.056 24.302 0 15.68 0C7.058 0 0 7.055 0 15.679C0 24.302 7.055 31.357 15.679 31.357Z" fill="#FF8E8E" stroke="white"/>
<path d="M17.6171 18.66C18.0077 18.4574 18.3964 18.2567 18.7831 18.058C20.2041 17.331 21.8931 17.785 22.7061 19.122C23.0587 19.7014 23.3971 20.288 23.7211 20.882C24.4851 22.282 23.9561 23.857 22.4921 24.562C21.8491 24.872 21.2061 25.182 20.5551 25.477C19.1801 26.101 17.8091 26.037 16.5651 25.185C11.4551 21.684 8.58307 16.961 7.92907 11.051C7.84907 10.331 7.81507 9.61503 8.07707 8.92303C8.41707 8.02503 9.03607 7.35503 9.92207 6.90703C10.5581 6.58503 11.1957 6.26536 11.8351 5.94803C13.2551 5.24903 14.9381 5.74403 15.7121 7.08703C16.0347 7.64703 16.3521 8.20936 16.6641 8.77403C17.4111 10.124 16.9241 11.691 15.5331 12.422C15.1681 12.613 14.7961 12.792 14.4361 12.991C14.3801 13.021 14.3241 13.138 14.3421 13.194C15.0268 15.2156 16.1282 17.0709 17.5751 18.64C17.5801 18.646 17.5881 18.648 17.6171 18.66Z" stroke="white" stroke-width="1.503"/>
</g>
<defs>
<clipPath id="clip0_2729_18597">
<rect width="32" height="32" fill="white"/>
</clipPath>
</defs>
</svg>
