<svg width="14" height="14" viewBox="0 0 14 14" fill="none" xmlns="http://www.w3.org/2000/svg">
<path d="M7 14C10.866 14 14 10.866 14 7C14 3.13401 10.866 0 7 0C3.13401 0 0 3.13401 0 7C0 10.866 3.13401 14 7 14Z" fill="#FFB300"/>
<path d="M7 12.5C10.0376 12.5 12.5 10.0376 12.5 7C12.5 3.96243 10.0376 1.5 7 1.5C3.96243 1.5 1.5 3.96243 1.5 7C1.5 10.0376 3.96243 12.5 7 12.5Z" fill="#FF8F00"/>
<path d="M7.21053 3.83207L8.08753 5.60957L10.0488 5.89457C10.0921 5.90086 10.1328 5.91914 10.1662 5.94734C10.1997 5.97554 10.2246 6.01254 10.2381 6.05416C10.2516 6.09578 10.2533 6.14035 10.2428 6.18284C10.2323 6.22533 10.2101 6.26403 10.1788 6.29457L8.75978 7.67807L9.09478 9.63132C9.10227 9.67451 9.09752 9.71893 9.08105 9.75954C9.06458 9.80016 9.03706 9.83535 9.00161 9.86112C8.96616 9.88689 8.92419 9.90221 8.88047 9.90534C8.83676 9.90847 8.79304 9.89928 8.75428 9.87882L7.00003 8.95632L5.24578 9.87882C5.20702 9.89928 5.1633 9.90847 5.11958 9.90534C5.07586 9.90221 5.0339 9.88689 4.99844 9.86112C4.96299 9.83535 4.93547 9.80016 4.919 9.75954C4.90253 9.71893 4.89778 9.67451 4.90528 9.63132L5.24028 7.67807L3.82103 6.29457C3.78978 6.26399 3.7677 6.22529 3.75727 6.18283C3.74684 6.14037 3.74847 6.09584 3.76198 6.05426C3.7755 6.01268 3.80035 5.9757 3.83376 5.94748C3.86716 5.91927 3.90777 5.90095 3.95103 5.89457L5.91253 5.60957L6.78953 3.83207C6.80887 3.79279 6.83883 3.7597 6.87601 3.73657C6.91319 3.71343 6.95611 3.70117 6.9999 3.70117C7.04369 3.70117 7.08661 3.71343 7.12379 3.73657C7.16097 3.7597 7.19118 3.79279 7.21053 3.83207Z" fill="#ECEFF1"/>
</svg>
