<svg width="22" height="22" viewBox="0 0 22 22" fill="none" xmlns="http://www.w3.org/2000/svg">
<path d="M15.5833 19.25H6.41663M11 2.75L11 19.25M19.25 6.41667H17.4166C15.5833 6.41667 12.8333 5.5 11 4.58333C9.16663 5.5 6.41663 6.41667 4.58329 6.41667H2.74996M7.33329 14.6667L4.58329 7.33333L1.83329 14.6667C2.63079 15.2625 3.59329 15.5833 4.58329 15.5833C5.57329 15.5833 6.53579 15.2625 7.33329 14.6667ZM20.1666 14.6667L17.4166 7.33333L14.6666 14.6667C15.4641 15.2625 16.4266 15.5833 17.4166 15.5833C18.4066 15.5833 19.3691 15.2625 20.1666 14.6667Z" stroke="#7F7F7F" stroke-width="1.6" stroke-linecap="round" stroke-linejoin="round"/>
</svg>
