<svg width="36" height="36" viewBox="0 0 36 36" fill="none" xmlns="http://www.w3.org/2000/svg">
<path d="M18.2441 0.5C27.729 0.500026 35.4922 8.26321 35.4922 17.748C35.4922 27.2329 27.729 34.9961 18.2441 34.9961C8.75832 34.9961 0.99612 27.2329 0.996094 17.748C0.996094 8.26319 8.75928 0.5 18.2441 0.5Z" fill="white" stroke="#A5929E"/>
<path d="M26.0827 11.6836C26.0827 12.1276 25.9347 12.7196 25.7877 13.1636C24.8997 17.3036 24.1607 21.4456 23.2727 25.5866C23.1247 25.8826 23.1257 26.0306 22.9777 26.3266C22.8297 26.6216 22.3857 26.7696 22.0897 26.6216C21.7937 26.4736 21.6457 26.4736 21.4987 26.3256C20.1667 25.2906 18.9837 24.4036 17.6527 23.3676C17.5047 23.2206 17.3567 23.2206 17.3567 23.3676L15.4347 25.2906C15.1387 25.5866 14.8427 25.5866 14.5467 25.5866C14.2517 25.5866 14.2517 25.4386 14.1037 25.2906C13.8077 24.1076 13.3637 22.7766 12.9197 21.4456L12.4767 20.1146C12.3287 19.9666 12.3287 19.8186 12.1807 19.8186C10.9977 19.5226 9.6667 19.0786 8.3357 18.6356C8.1877 18.4876 8.0397 18.4876 7.8917 18.4876C7.5957 18.1916 7.5957 17.8956 7.7437 17.7476C7.8917 17.5996 8.1877 17.4516 8.4837 17.3036C10.1097 16.5646 11.8847 15.9736 13.6597 15.2336C17.3964 13.7293 21.1431 12.2503 24.8997 10.7966H25.0477C25.4917 10.5006 26.0827 10.7966 26.0827 11.6836ZM14.3987 24.4036C14.5467 24.4036 14.5467 24.4036 14.3987 24.4036C14.5467 23.3676 14.6947 22.4806 14.6947 21.5936C14.6947 21.2976 14.8427 21.1496 14.9907 21.0016C17.3567 18.7836 19.8707 16.5646 22.2377 14.1986L22.6817 13.7546C22.8297 13.6066 22.8297 13.6066 22.8297 13.4586C22.6817 13.3106 22.6817 13.3106 22.5337 13.3106C22.3857 13.3106 22.2377 13.4586 21.9417 13.4586C18.9837 15.3816 16.0257 17.3046 12.9197 19.2266C12.7717 19.3746 12.7717 19.3746 12.7717 19.5226C13.0677 20.7056 13.5117 21.8886 13.8077 22.9246C14.1037 23.6646 14.2517 24.1076 14.3987 24.4036Z" fill="#000000"/>
</svg>
