<svg width="30" height="30" viewBox="0 0 30 30" fill="none" xmlns="http://www.w3.org/2000/svg">
<path d="M15 0C6.76113 0 0 6.76113 0 15C0 23.2389 6.76113 30 15 30C23.2389 30 30 23.2389 30 15C30 6.76113 23.2389 0 15 0ZM16.7578 22.0312C16.7578 23.0003 15.969 23.7891 15 23.7891C14.031 23.7891 13.2422 23.0003 13.2422 22.0312V13.2422C13.2422 12.2732 14.031 11.4844 15 11.4844C15.969 11.4844 16.7578 12.2732 16.7578 13.2422V22.0312ZM15 9.72656C14.031 9.72656 13.2422 8.93777 13.2422 7.96875C13.2422 6.99973 14.031 6.21094 15 6.21094C15.969 6.21094 16.7578 6.99973 16.7578 7.96875C16.7578 8.93777 15.969 9.72656 15 9.72656Z" fill="#09C926"/>
</svg>
