<svg xmlns="http://www.w3.org/2000/svg" width="100" height="100" fill="none"><path fill="#EDEEF2" d="M48.116 51.393 1.656 68.297c-1.98.72-2.249 3.312-.455 4.394l44.642 26.933a2.64 2.64 0 0 0 2.636.048l48.746-27.004c1.878-1.04 1.647-3.717-.383-4.445L49.915 51.389a2.65 2.65 0 0 0-1.8.004"></path><path fill="#9E0000" d="m50.807 91.576 30.817-17.503a2.55 2.55 0 0 0 1.274-1.817l4.133-26.48-37.128 17.73-2.33 27.429 1.157.647c.643.36 1.437.357 2.077-.006"></path><path fill="#C40000" d="m49.903 63.505-.12 26.612c-.004.911-1.03 1.477-1.85 1.02l-22.472-12.56-9.774-5.466a2.72 2.72 0 0 1-1.405-2.175l-1.725-24.44z"></path><path fill="#9E0000" d="m12.935 42.21 36.23-15.256 37.9 15.39-35 21.087z"></path><path fill="#E00B0B" d="M11.252 34.665 49.326 20.54l-.312 12.5-38.898 13.458-.368-9.638c-.037-.966.567-1.847 1.504-2.195"></path><path fill="#C40000" d="m49.326 20.54 40.442 14.519c.71.254 1.153.935 1.081 1.66l-.246 2.512-3.361 8.468-38.228-14.66z"></path><path fill="#0087D9" d="m89.478 17.837-5.15 27.842c-.157.85-1 1.42-1.883 1.269l-10.879-1.865-13.638-2.335c-.883-.15-1.474-.968-1.311-1.819l5.144-27.842c1.298.223 2.535-.608 2.765-1.851l2.087.36 20.936 3.585c-.232 1.243.631 2.433 1.93 2.656"></path><path fill="#53B4F0" d="m74.35 12.917-8.724 31.148-4.62-.792 8.724-31.147zM83.423 14.472 74.7 45.62l-6.73-1.153 8.724-31.148z"></path><path fill="#0059AA" d="m71.566 45.083-13.638-2.335c-.883-.15-1.474-.968-1.311-1.819l5.144-27.842c1.298.222 2.535-.608 2.765-1.851.232-1.25-.638-2.44-1.93-2.663l.843-4.553 2.107.366 1.067 7.21z"></path><path fill="#fff" d="M74.939 18.16c-.59-.924-1.47-1.49-2.651-1.693q-1.785-.306-3.089.719-1.314 1.022-1.674 2.982-.365 1.96.502 3.356.858 1.395 2.642 1.7 1.769.305 3.093-.7 1.328-1.011 1.695-2.997.366-1.981-.518-3.366m-2.342 4.999c-.441.423-.988.58-1.633.469-.62-.107-1.07-.433-1.346-.996-.277-.555-.336-1.264-.175-2.135.16-.863.47-1.517.93-1.946.46-.428 1-.594 1.62-.488.645.11 1.1.447 1.363.991.271.546.32 1.261.158 2.14-.164.887-.465 1.535-.917 1.965M63.854 38.146c-.384-.066-.69-.318-.798-.659a.81.81 0 0 1 .233-.864l17.407-16.316c.229-.215.563-.31.892-.253.39.066.688.313.798.657a.81.81 0 0 1-.233.865L64.746 37.892c-.229.216-.562.31-.892.254M78.549 33.408c-.588-.933-1.468-1.5-2.658-1.703q-1.77-.304-3.088.718c-.878.682-1.433 1.677-1.675 2.983q-.365 1.958.503 3.356.87 1.397 2.641 1.7c1.19.204 2.219-.036 3.105-.716.878-.681 1.442-1.674 1.683-2.98s.069-2.427-.511-3.358m-2.354 4.971c-.45.43-.991.596-1.628.487-.628-.108-1.086-.436-1.357-.982q-.405-.83-.164-2.15c.163-.878.474-1.532.923-1.954.451-.43.999-.586 1.627-.479q.952.166 1.354.998c.277.555.327 1.27.167 2.133-.161.871-.462 1.518-.922 1.947"></path><path fill="#0059AA" d="m91.789 5.355-1.475 7.967c-1.298-.222-2.534.609-2.765 1.859l-20.936-3.585-2.086-.36c.23-1.25-.64-2.44-1.93-2.663l.842-4.553.632-3.415c.075-.399.47-.66.877-.595l26.23 4.494c.407.072.679.452.61.85"></path><path fill="#003B70" d="M64.527 11.236c.23-1.25-.64-2.44-1.93-2.663l.842-4.553 2.107.366 1.067 7.21z"></path><path fill="#0087D9" d="M77.369 2.142 74.35 12.918l-4.62-.792L72.749 1.35zM86.442 3.697l-3.019 10.775-6.729-1.153 3.02-10.776z"></path><path fill="#fff" d="M66.713 7.81a1.26 1.26 0 0 1-.407-.604 1.65 1.65 0 0 1-.035-.809l.201-1.089q.082-.441.323-.747.24-.305.6-.434.357-.128.786-.055.355.06.625.258.27.196.421.499.15.3.156.666l-.592-.102a.88.88 0 0 0-.373-.638.8.8 0 0 0-.337-.14.84.84 0 0 0-.464.042.8.8 0 0 0-.356.278q-.144.194-.196.475l-.201 1.089q-.052.278.014.51a.775.775 0 0 0 .655.57.9.9 0 0 0 .366-.013.884.884 0 0 0 .579-.48l.593.1a1.6 1.6 0 0 1-.387.574 1.4 1.4 0 0 1-.576.328 1.5 1.5 0 0 1-.676.035 1.5 1.5 0 0 1-.719-.312M70.199 8.41a1.26 1.26 0 0 1-.415-.601 1.6 1.6 0 0 1-.037-.8l.207-1.124q.081-.436.323-.737.24-.3.603-.426.363-.125.794-.052.431.075.726.312.295.238.414.6.12.363.038.8l-.208 1.124a1.6 1.6 0 0 1-.322.738q-.24.3-.604.426a1.6 1.6 0 0 1-.793.051 1.55 1.55 0 0 1-.726-.312m1.297-.271a.8.8 0 0 0 .359-.263q.144-.185.193-.452l.215-1.163a1 1 0 0 0-.02-.489.75.75 0 0 0-.242-.365.9.9 0 0 0-.429-.188.9.9 0 0 0-.47.034.8.8 0 0 0-.358.262 1 1 0 0 0-.194.453l-.215 1.162q-.048.268.02.49.069.22.242.365a.9.9 0 0 0 .43.187q.254.044.47-.033M73.836 9.041a1.15 1.15 0 0 1-.401-.59 1.75 1.75 0 0 1-.023-.827l.468-2.533.579.099-.472 2.552q-.08.434.103.71.182.276.596.348.417.07.69-.127.27-.199.352-.633l.472-2.552.578.1-.468 2.532a1.8 1.8 0 0 1-.318.77q-.23.302-.59.42a1.7 1.7 0 0 1-.817.038 1.64 1.64 0 0 1-.749-.307M77.685 5.743l.578.099-.734 3.968-.578-.099zm-.054 1.95 1.319.226q.187.032.344-.028a.6.6 0 0 0 .264-.202.8.8 0 0 0 .144-.345.8.8 0 0 0-.01-.373.58.58 0 0 0-.489-.422l-1.318-.226.098-.53 1.298.223q.369.063.621.263.253.2.357.502t.036.665a1.3 1.3 0 0 1-.272.61 1.1 1.1 0 0 1-.514.35 1.4 1.4 0 0 1-.677.04l-1.298-.223zM81.14 10.284a1.26 1.26 0 0 1-.414-.6 1.6 1.6 0 0 1-.038-.8l.208-1.124q.08-.436.322-.737.24-.3.604-.426.362-.125.793-.052.431.075.726.312.295.239.414.6a1.6 1.6 0 0 1 .038.8l-.208 1.124a1.6 1.6 0 0 1-.322.738q-.24.3-.603.426a1.6 1.6 0 0 1-.794.051 1.55 1.55 0 0 1-.726-.312m1.297-.27a.8.8 0 0 0 .36-.263q.143-.185.192-.452l.215-1.163a1 1 0 0 0-.019-.489.75.75 0 0 0-.242-.365.9.9 0 0 0-.43-.188.9.9 0 0 0-.47.034.8.8 0 0 0-.358.262 1 1 0 0 0-.193.453l-.215 1.162q-.05.268.02.49.068.22.242.365a.9.9 0 0 0 .429.187q.254.044.47-.033M84.935 6.985l.525.09 1.449 3.413-.082.06.58-3.14.573.099-.733 3.966-.53-.091-1.452-3.366.082-.06-.572 3.093-.573-.098z"></path><path fill="#02B21B" d="m46.778 43.54-13.21 3.27-10.261 2.545c-.843.21-1.706-.281-1.923-1.099l-7.128-26.658c1.243-.307 1.99-1.524 1.671-2.715l19.421-4.814 2.623-.648c.32 1.197 1.583 1.91 2.82 1.61l7.128 26.65c.218.818-.292 1.65-1.141 1.858"></path><path fill="#4CC600" d="m25.333 16.552 5.344 30.976-4.424 1.096-5.344-30.976zM34.02 14.4l5.344 30.976-6.442 1.596-5.344-30.976z"></path><path fill="#029617" d="m46.778 43.54-13.21 3.27 1.78-32.742.47-8.661 2.18-.844 1.638 6.143c-1.236.307-1.984 1.524-1.664 2.715.319 1.197 1.583 1.91 2.82 1.609L47.92 41.68c.217.818-.292 1.649-1.142 1.858"></path><path fill="#fff" d="M28.055 20.966c-.91-.59-1.928-.75-3.059-.47q-1.708.425-2.433 1.838-.735 1.417-.232 3.293c.335 1.25.95 2.177 1.854 2.776q1.344.902 3.052.479c1.131-.28 1.944-.885 2.446-1.824q.752-1.411.243-3.312-.506-1.897-1.871-2.78m.023 5.337q-.321.82-1.25 1.05c-.593.147-1.128.033-1.609-.359q-.717-.573-1.051-1.822c-.22-.826-.22-1.526.007-2.084q.34-.84 1.23-1.062c.617-.153 1.163-.033 1.623.347q.702.569 1.038 1.834c.227.85.232 1.54.012 2.096M26.624 42.975a1 1 0 0 1-.983-.273.79.79 0 0 1-.155-.856l8.568-21.218a.98.98 0 0 1 .684-.572c.373-.092.74.01.983.272.221.241.278.553.156.857l-8.569 21.218a.98.98 0 0 1-.684.572M37.65 33.065c-.912-.598-1.93-.757-3.068-.475q-1.697.42-2.434 1.837-.735 1.417-.232 3.293c.335 1.25.95 2.177 1.854 2.776q1.356.9 3.052.479c1.139-.282 1.95-.895 2.45-1.842.491-.945.574-2.043.24-3.294q-.504-1.876-1.862-2.774m.001 5.317c-.219.557-.628.913-1.237 1.064-.602.149-1.145.037-1.614-.341-.47-.386-.822-.998-1.047-1.84s-.224-1.542-.003-2.09c.22-.557.639-.907 1.24-1.056q.913-.225 1.617.356c.48.384.823.998 1.044 1.825.222.834.227 1.524 0 2.082"></path><path fill="#029617" d="m37.972 13.421-2.623.648-19.421 4.815c-.32-1.198-1.583-1.917-2.827-1.61l-2.038-7.627a.707.707 0 0 1 .53-.864L36.7 2.562a.74.74 0 0 1 .897.51l.4 1.492 1.638 6.142c-1.236.308-1.984 1.525-1.665 2.715"></path><path fill="#027312" d="m37.972 13.42-2.623.648.469-8.661 2.18-.844 1.638 6.143c-1.236.307-1.984 1.524-1.664 2.715"></path><path fill="#02B21B" d="m23.485 5.835 1.848 10.717-4.424 1.096L19.06 6.93zM32.173 3.684 34.021 14.4l-6.443 1.596L25.73 5.28z"></path><path fill="#fff" d="M16.425 15.022a1.3 1.3 0 0 1-.614-.377 1.64 1.64 0 0 1-.37-.703l-.279-1.042a1.6 1.6 0 0 1-.028-.788q.085-.363.349-.617.264-.253.674-.355.339-.084.661-.014.323.069.582.277.26.21.418.53l-.567.14a.9.9 0 0 0-.257-.275.9.9 0 0 0-.342-.145.8.8 0 0 0-.356.007.8.8 0 0 0-.394.218.76.76 0 0 0-.198.384 1.1 1.1 0 0 0 .026.497l.278 1.043q.072.267.226.445a.8.8 0 0 0 .367.245.83.83 0 0 0 .453.006.85.85 0 0 0 .319-.154.8.8 0 0 0 .226-.279.8.8 0 0 0 .085-.372l.567-.14q.023.354-.102.658a1.3 1.3 0 0 1-.372.514q-.248.21-.584.294a1.5 1.5 0 0 1-.768.003M19.764 14.197a1.3 1.3 0 0 1-.619-.371 1.6 1.6 0 0 1-.369-.693l-.288-1.077a1.56 1.56 0 0 1-.024-.778q.088-.36.356-.612.27-.252.681-.354a1.54 1.54 0 0 1 .774-.006q.361.096.619.37.257.276.369.693l.287 1.077q.112.418.025.778-.088.36-.356.612a1.5 1.5 0 0 1-.681.354q-.413.102-.774.007m1.035-.744a.73.73 0 0 0 .208-.372 1 1 0 0 0-.019-.476l-.297-1.114a1 1 0 0 0-.223-.425.77.77 0 0 0-.368-.23.9.9 0 0 0-.458.001.87.87 0 0 0-.402.213.73.73 0 0 0-.208.371 1 1 0 0 0 .019.477l.297 1.113q.069.256.223.425.153.17.368.23.213.06.458-.001a.87.87 0 0 0 .402-.212M23.249 13.342a1.18 1.18 0 0 1-.603-.366 1.74 1.74 0 0 1-.367-.725l-.648-2.425.554-.137.653 2.444q.11.415.389.589.278.173.674.075.399-.1.557-.38.157-.282.046-.697l-.653-2.444.554-.137.648 2.425q.12.447.042.805a1.1 1.1 0 0 1-.346.601q-.268.244-.708.352a1.6 1.6 0 0 1-.792.02M25.274 8.924l.554-.137 1.016 3.8-.554.137zm.771 1.748 1.263-.312a.6.6 0 0 0 .293-.16.55.55 0 0 0 .149-.281.8.8 0 0 0-.017-.361.8.8 0 0 0-.167-.327.59.59 0 0 0-.609-.183l-1.262.312-.136-.507 1.244-.307a1.34 1.34 0 0 1 .66-.01q.307.08.526.306.22.228.311.575.093.348.015.647-.077.3-.308.51t-.583.297l-1.243.308zM30.238 11.602a1.3 1.3 0 0 1-.618-.37 1.6 1.6 0 0 1-.37-.694l-.287-1.076a1.56 1.56 0 0 1-.024-.779q.087-.36.356-.612t.68-.354q.414-.102.775-.006.36.096.618.37.258.276.37.693l.287 1.077q.112.418.024.779-.087.36-.356.612a1.5 1.5 0 0 1-.68.354q-.414.102-.775.006m1.036-.744a.73.73 0 0 0 .207-.372 1 1 0 0 0-.018-.476l-.298-1.113a1 1 0 0 0-.222-.426.77.77 0 0 0-.368-.23.9.9 0 0 0-.459.002.87.87 0 0 0-.402.212.73.73 0 0 0-.207.372 1 1 0 0 0 .019.476l.297 1.113q.069.256.222.426.154.17.368.229.215.06.459 0a.87.87 0 0 0 .402-.213M32.216 7.205l.502-.124 2.715 2.459-.047.084-.803-3.005.548-.136 1.015 3.797-.508.126-2.697-2.416.047-.085.79 2.961-.547.136z"></path><path fill="#FFB200" d="m66.04 17.782 1.105 29.866c.034.913-.707 1.68-1.655 1.712l-26.298.902c-.948.032-1.744-.681-1.778-1.594l-1.105-29.866c1.388-.047 2.475-1.171 2.425-2.508l24.7-.847c.05 1.336 1.217 2.383 2.606 2.335"></path><path fill="#FFD83C" d="m49.274 15.932-1.826 34.046-4.957.17 1.827-34.046zM59.009 15.598l-1.827 34.046-7.218.248 1.827-34.046z"></path><path fill="#fff" d="M51.093 21.223c-.823-.83-1.863-1.227-3.13-1.183q-1.914.066-3.025 1.403c-.75.892-1.094 2.038-1.042 3.44.052 1.4.48 2.52 1.294 3.36q1.208 1.257 3.12 1.191c1.268-.043 2.276-.502 3.035-1.386s1.112-2.039 1.06-3.457c-.053-1.42-.49-2.539-1.312-3.368m-1.266 5.665c-.358.532-.888.81-1.58.833-.664.023-1.204-.218-1.62-.741-.414-.514-.639-1.234-.674-2.168-.034-.926.137-1.668.512-2.209a1.89 1.89 0 0 1 1.561-.85c.692-.024 1.241.226 1.638.732.406.505.621 1.234.656 2.177.036.952-.126 1.685-.493 2.226M44.252 44.241c-.412.014-.786-.18-.977-.51a.85.85 0 0 1 .042-.942l14.219-20.58c.187-.271.51-.44.863-.452.418-.015.783.176.977.509a.85.85 0 0 1-.042.943l-14.219 20.58a1.09 1.09 0 0 1-.864.452M58.341 36.205c-.822-.838-1.863-1.236-3.139-1.192q-1.9.066-3.025 1.403c-.75.892-1.094 2.038-1.042 3.44.052 1.4.48 2.52 1.294 3.359q1.221 1.258 3.12 1.192c1.277-.044 2.285-.511 3.044-1.403q1.127-1.338 1.051-3.44-.08-2.102-1.303-3.36m-1.285 5.639c-.366.54-.887.827-1.57.85-.673.024-1.222-.217-1.628-.723q-.61-.772-.665-2.186c-.035-.943.135-1.685.502-2.217.367-.541.897-.82 1.57-.842.684-.024 1.224.226 1.63.74.414.515.63 1.244.664 2.17.035.933-.127 1.667-.503 2.208"></path><path fill="#F80" d="m65.544 4.387.317 8.551c-1.389.048-2.476 1.172-2.426 2.508l-24.7.848c-.05-1.337-1.217-2.384-2.605-2.336l-.317-8.552c-.016-.424.33-.78.77-.796l28.134-.965c.44-.015.811.318.827.742"></path><path fill="#FFB200" d="m49.908 4.153-.633 11.78-4.957.17.633-11.78zM59.641 3.82l-.633 11.779-7.218.247.633-11.779z"></path><path fill="#fff" d="M40.199 12.299a1.36 1.36 0 0 1-.56-.538 1.76 1.76 0 0 1-.223-.828l-.043-1.168a1.75 1.75 0 0 1 .16-.841 1.36 1.36 0 0 1 .52-.576q.34-.21.8-.226.38-.013.705.133t.55.425.315.655l-.635.022a.94.94 0 0 0-.207-.35.95.95 0 0 0-.326-.23.9.9 0 0 0-.38-.072.9.9 0 0 0-.47.142.84.84 0 0 0-.304.364q-.104.23-.093.532l.043 1.168q.012.3.133.523a.84.84 0 0 0 .808.45.9.9 0 0 0 .376-.091.914.914 0 0 0 .487-.62l.635-.023q-.061.381-.267.675a1.5 1.5 0 0 1-.519.462q-.314.167-.69.18a1.6 1.6 0 0 1-.815-.168M43.938 12.172a1.36 1.36 0 0 1-.567-.532 1.7 1.7 0 0 1-.223-.817l-.045-1.206q-.017-.47.163-.831.18-.362.525-.57.345-.206.808-.222.462-.015.822.167t.567.531.223.818l.045 1.206q.017.47-.163.831a1.35 1.35 0 0 1-.525.57q-.346.205-.808.222a1.66 1.66 0 0 1-.822-.167m1.278-.557q.205-.126.31-.347.105-.222.095-.51l-.046-1.247a1.1 1.1 0 0 0-.133-.5.8.8 0 0 0-.335-.327.96.96 0 0 0-.486-.102.96.96 0 0 0-.478.136.8.8 0 0 0-.31.347q-.105.222-.095.51l.046 1.247q.011.286.133.5a.8.8 0 0 0 .335.326.96.96 0 0 0 .486.103.96.96 0 0 0 .478-.136M47.842 12.047a1.25 1.25 0 0 1-.55-.524 1.86 1.86 0 0 1-.215-.85l-.1-2.717.62-.021.101 2.738q.018.465.27.711.253.247.697.232.448-.015.682-.279.235-.263.219-.729l-.102-2.737.62-.021.101 2.717q.019.5-.15.862a1.23 1.23 0 0 1-.513.56 1.8 1.8 0 0 1-.835.215 1.76 1.76 0 0 1-.845-.157M51.058 7.816l.62-.021.158 4.257-.62.021zm.394 2.027 1.415-.048a.7.7 0 0 0 .349-.103.6.6 0 0 0 .226-.266.84.84 0 0 0 .07-.386.85.85 0 0 0-.098-.384.62.62 0 0 0-.602-.331l-1.414.048-.021-.568 1.393-.048q.395-.013.702.14.307.15.484.441.177.29.191.68t-.14.69a1.14 1.14 0 0 1-.45.47 1.45 1.45 0 0 1-.69.185l-1.394.048zM55.674 11.77a1.36 1.36 0 0 1-.566-.532 1.7 1.7 0 0 1-.224-.818l-.045-1.206a1.7 1.7 0 0 1 .163-.831q.18-.362.526-.57.346-.206.807-.222.463-.015.823.167.36.183.566.532.206.348.224.817l.044 1.207q.018.468-.162.83a1.35 1.35 0 0 1-.526.57q-.345.206-.808.222a1.66 1.66 0 0 1-.822-.167m1.278-.557q.205-.126.31-.348t.095-.51l-.046-1.247a1.1 1.1 0 0 0-.133-.5.8.8 0 0 0-.334-.326.96.96 0 0 0-.487-.102.96.96 0 0 0-.477.135.8.8 0 0 0-.31.347q-.106.223-.096.51l.046 1.247q.012.287.133.5a.8.8 0 0 0 .335.327.96.96 0 0 0 .486.102.96.96 0 0 0 .478-.136M58.834 7.55l.563-.02 2.284 3.217-.07.079-.125-3.367.614-.021.158 4.254-.569.02-2.276-3.168.07-.079.123 3.318-.614.02z"></path><path fill="#C40000" d="m90.865 36.592-1.156 11.762a.61.61 0 0 1-.34.485l-17.144 8.668q-.011.008-.013.006l-13.59 6.869-.007.006-7.495 3.788c-.795.4-1.74.386-2.521-.032l-1.291-.687.965-13.3.964.445a4 4 0 0 0 3.439-.052q0 .002.02-.007l4.927-2.453 32.324-16.093c.442-.222.965.118.918.595"></path><path fill="#E00B0B" d="M50.882 66.284c-.002.297.302.505.595.41l7.137-2.306-7.495 3.787c-.795.4-1.74.386-2.521-.032l-1.291-.687.965-13.3.965.445a4 4 0 0 0 3.438-.052q0 .002.02-.007l4.927-2.453c1.182-.052 1.99-.091 1.99-.091s-7.005 2.531-7.882 4.232c-.744 1.439-.837 8.017-.848 10.054"></path><path fill="#E00B0B" d="m50.624 55.68-.72 12.169c-.021.444-.53.713-.938.497l-7.23-3.88h-.007l-9.344-5.01h-.006L10.464 47.712a.61.61 0 0 1-.32-.51l-.38-10.284c-.02-.458.483-.772.91-.563l36.287 17.186 3.289 1.557q.02.007.02.006a.595.595 0 0 1 .354.576"></path><path fill="#FF0F0F" d="M32.379 59.456 10.464 47.713a.61.61 0 0 1-.32-.51l-.38-10.284c-.02-.458.483-.772.91-.562L50.25 55.099c-.992-.399-37.088-14.843-37.312-10.86-.218 3.972 18.754 14.818 19.44 15.217"></path><path fill="#E00B0B" d="M90.865 36.592 89.71 48.354a.61.61 0 0 1-.34.485l-17.144 8.668c.448-.269 15.316-9.27 14.215-12.312-1.1-3.049-32.861 9.014-33.745 9.348l37.251-18.546c.442-.222.965.118.918.595"></path><path fill="#FF0F0F" d="m50.624 55.68-.72 12.168c-.021.445-.53.713-.939.498l-7.23-3.88 6.032 2.06c.622.213 1.28-.208 1.31-.841.102-2.097.285-6.248.249-8.18-.05-2.643-7.59-5.704-7.59-5.704s4.858 1.753 5.225 1.74l3.289 1.557q.02.009.02.007a.595.595 0 0 1 .353.576"></path><path fill="#9E0000" d="m25.46 78.577-9.69-5.423c3.228-6.28 9.208-17.826 9.419-17.826.224.137 1.331.987 1.331.987s1.557 14.19-1.06 22.262"></path><path fill="#FFB200" d="M34.593 47.68c-.979-.04-1.849.033-2.63.21C26.983 49 25.698 54.34 24.801 62c-.286 2.46-.537 5.168-.85 8.053-1.202 11.036-10.267 15.17-13.27 16.243a1.99 1.99 0 0 1-1.747-.209L4.41 83.111c-1.332-.877-1.027-2.84.51-3.297 8.391-2.493 12.57-12.155 13.596-23.682q.009-.048.007-.118.111-1.226.17-2.473c.326-6.796 3.398-9.132 5.192-9.923.767-.334 1.304-.393 1.304-.393z"></path><path fill="#600" d="m52.889 67.28 14.856-4.2v18.876l3.912-2.222V56.867z"></path><path fill="#F80" d="M83.635 67.542s9.523 3.043 11.598 7.496c2.074 4.452-2.922-9.018-10.5-14.536zM82.696 89.653l-6.346 4.723a.83.83 0 0 1-.72.13l-7.149-2c-.693-.197-1.108-.864-.978-1.538 1.365-7.164 2.14-13.68 2.446-19.279v-.007c.632-11.278-.625-18.833-2.684-20.476a5.8 5.8 0 0 0-2.019-1.053v-.006c-2.208-.654-4.3.117-4.824.34l9.568-4.815s3.295-.792 5.898.942c.435.288.85.648 1.223 1.086 2.643 3.1 2.881 9.126 2.786 15.733a34 34 0 0 1-.184 2.82q-.008.078-.006.078c-.687 6.608-2.963 17.048-3.547 19.665a.66.66 0 0 0 .496.772l5.755 1.518c.646.17.815.974.285 1.367"></path><path fill="#FFB200" d="M95.655 83.961c-13.36 3.945-25.992-4.658-37.054-6.28a25 25 0 0 0-2.039-.222c-10.988-.694-12.7 9.682-17.171 13.404q-.468.392-.904.726c-3.01 2.355-4.81 2.924-5.755 3.016a1.68 1.68 0 0 1-1.176-.34l-3.472-2.643c-.965-.74-.782-2.198.34-2.689 2.133-.923 3.852-2.741 5.673-4.854v-.007c3.18-3.702 6.64-8.282 13.047-10.466 1.645-.557 3.71-.805 6.055-.825 14.208-.144 38.454 7.837 39.63 2.257 1.29-6.123-7.027-13.607-7.999-14.457 1.685 1.308 24.497 19.344 10.825 23.38"></path><path fill="#FFD83C" d="M31.963 47.89c-4.98 1.112-6.265 6.45-7.162 14.11-1.087 2.695-1.943 4.383-1.332 1.08 1.04-5.613.136-9.689-1.74-10.356-1.868-.667-3.213 3.408-3.213 3.408q.008-.049.006-.118.111-1.226.17-2.472c.326-6.797 3.398-9.133 5.192-9.924 2.759.909 6.299 3.1 8.08 4.271"></path><path fill="#FFB200" d="M79.897 63.433a34 34 0 0 1-.184 2.82c.054-.981.544-10.768-2.95-10.454-3.628.327-6.733 15.491-6.815 15.884.632-11.279-.625-18.834-2.684-20.476a5.8 5.8 0 0 0-2.018-1.054v-.006s6.503-4.03 10.641-3.533c.435.288.85.648 1.224 1.086 2.643 3.101 2.88 9.126 2.785 15.733"></path><path fill="#FFD83C" d="M58.601 77.681a25 25 0 0 0-2.038-.222c-10.988-.694-12.7 9.682-17.172 13.404q-.466.392-.904.726c3.092-3.546 4.546-9.93 2.813-10.67-1.868-.804-7.202 3.16-7.202 3.16v-.006c3.18-3.703 6.639-8.283 13.046-10.467 1.645-.557 3.71-.805 6.055-.825 6.082 1.086 5.402 4.9 5.402 4.9"></path></svg>