<svg width="212" height="26" viewBox="0 0 212 26" fill="none" xmlns="http://www.w3.org/2000/svg">
<path d="M0 25.8426V2.0296H22.4226C24.4811 2.0296 25.9735 2.3936 26.8998 3.1216C27.8262 3.8516 28.2894 5.02693 28.2894 6.6476V9.5556C28.3127 10.0548 28.2238 10.5532 28.0281 11.02C27.8324 11.4869 27.5341 11.9124 27.1514 12.2706C26.388 12.9526 25.2675 13.3866 23.7857 13.5636C25.0928 13.6681 26.3181 14.1869 27.248 15.0296C28.0941 15.8767 28.5383 16.9938 28.4838 18.1376V21.1816C28.4838 22.7716 27.8485 23.9469 26.578 24.7076C25.3075 25.4683 23.3782 25.8469 20.7903 25.8436L0 25.8426ZM19.8731 5.9036H5.99092V11.5826H19.8731C20.9276 11.5826 21.6372 11.4536 22.0788 11.1806C22.2918 11.0248 22.459 10.8233 22.5652 10.5941C22.6715 10.3649 22.7134 10.1152 22.6873 9.8676V7.6146C22.7105 7.36877 22.6676 7.1215 22.5624 6.89414C22.4571 6.66677 22.2926 6.46615 22.0832 6.3096C21.6592 6.0396 20.9225 5.90427 19.8731 5.9036ZM19.8731 15.5016H5.99092V21.5616H19.8731C20.9935 21.5616 21.7653 21.3996 22.1886 21.0756C22.6082 20.7563 22.8184 20.2049 22.8191 19.4216V17.6186C22.8191 16.8373 22.6163 16.2896 22.2106 15.9756C21.8041 15.6626 21.0286 15.5016 19.8731 15.5016ZM35.2381 25.8426L50.0364 2.0296H55.9021L70.9014 25.8436H64.0548L60.9187 20.6236H44.3377L41.2983 25.8436L35.2381 25.8426ZM46.9487 16.3376H58.4186L52.7452 6.6496L46.9487 16.3376ZM83.8444 25.8426V15.1846L70.2577 2.0296H78.3752L87.3561 11.1856L96.3557 2.0296H103.511L89.9858 15.0526V25.8426H83.8444ZM110.599 25.8426V2.0296H116.687V21.3626H136.313V25.8436L110.599 25.8426ZM139.326 25.8426L154.103 2.0166H159.97L174.968 25.8306L168.126 25.8426L164.985 20.6226H148.408L145.368 25.8426H139.326ZM151.015 16.3256H162.484L156.834 6.6506L151.015 16.3256ZM183.715 25.8426V2.0296H206.085C208.164 2.0296 209.669 2.3936 210.602 3.1216C211.533 3.8516 211.999 5.02693 212 6.6476V11.9646C212 13.5713 211.534 14.7359 210.602 15.4586C209.669 16.1813 208.164 16.5496 206.085 16.5636H189.702V25.8436L183.715 25.8426ZM203.389 6.1646H189.715V12.4616H203.389C204.426 12.4616 205.153 12.3256 205.542 12.0606C205.931 11.7956 206.133 11.2936 206.133 10.5706V8.0196C206.159 7.75614 206.119 7.49075 206.017 7.24318C205.915 6.9956 205.752 6.77221 205.542 6.5896C205.145 6.2966 204.426 6.1646 203.389 6.1646Z" fill="black"/>
<path d="M81.1807 0.274414L87.3605 6.57541L93.5536 0.275414L81.1807 0.274414Z" fill="#D93A3F"/>
</svg>
