<svg width="20" height="20" viewBox="0 0 20 20" fill="none" xmlns="http://www.w3.org/2000/svg">
<path d="M7.4987 10.0002L9.16536 11.6669L12.4987 8.33358M3.20703 7.18358C3.0854 6.63568 3.10407 6.06595 3.26133 5.52719C3.41858 4.98844 3.70932 4.49811 4.10659 4.10168C4.50385 3.70524 4.99479 3.41553 5.53387 3.25941C6.07295 3.10328 6.64272 3.0858 7.19036 3.20858C7.49179 2.73716 7.90703 2.34921 8.39782 2.08048C8.88861 1.81175 9.43915 1.6709 9.9987 1.6709C10.5582 1.6709 11.1088 1.81175 11.5996 2.08048C12.0904 2.34921 12.5056 2.73716 12.807 3.20858C13.3555 3.08526 13.9263 3.10267 14.4662 3.25917C15.0061 3.41568 15.4977 3.70619 15.8952 4.10371C16.2927 4.50122 16.5833 4.9928 16.7398 5.53275C16.8963 6.07269 16.9137 6.64344 16.7904 7.19191C17.2618 7.49334 17.6497 7.90858 17.9185 8.39937C18.1872 8.89016 18.328 9.4407 18.328 10.0002C18.328 10.5598 18.1872 11.1103 17.9185 11.6011C17.6497 12.0919 17.2618 12.5072 16.7904 12.8086C16.9131 13.3562 16.8957 13.926 16.7395 14.4651C16.5834 15.0042 16.2937 15.4951 15.8973 15.8924C15.5008 16.2896 15.0105 16.5804 14.4717 16.7376C13.933 16.8949 13.3633 16.9135 12.8154 16.7919C12.5143 17.2651 12.0988 17.6547 11.6071 17.9247C11.1155 18.1946 10.5637 18.3361 10.0029 18.3361C9.44201 18.3361 8.89022 18.1946 8.39859 17.9247C7.90696 17.6547 7.49139 17.2651 7.19036 16.7919C6.64272 16.9147 6.07295 16.8972 5.53387 16.7411C4.99479 16.585 4.50385 16.2952 4.10659 15.8988C3.70932 15.5024 3.41858 15.012 3.26133 14.4733C3.10407 13.9345 3.0854 13.3648 3.20703 12.8169C2.73199 12.5163 2.34071 12.1004 2.06957 11.6079C1.79843 11.1155 1.65625 10.5624 1.65625 10.0002C1.65625 9.43807 1.79843 8.88503 2.06957 8.39257C2.34071 7.9001 2.73199 7.48421 3.20703 7.18358Z" stroke="black" stroke-width="1.66667" stroke-linecap="round" stroke-linejoin="round"/>
</svg>
