<svg width="40" height="40" viewBox="0 0 40 40" fill="none" xmlns="http://www.w3.org/2000/svg">
<g clip-path="url(#clip0_2928_14342)">
<path d="M31.2936 20.0002C31.2936 21.1676 30.1894 22.1464 29.8474 23.1998C29.4929 24.2916 29.7986 25.73 29.1373 26.6388C28.4693 27.5566 27.0023 27.7073 26.0844 28.3752C25.1757 29.0366 24.5827 30.389 23.4909 30.7435C22.4375 31.0856 21.1677 30.3511 20.0003 30.3511C18.8329 30.3511 17.5631 31.0856 16.5097 30.7435C15.4179 30.389 14.8249 29.0366 13.9162 28.3752C12.9983 27.7072 11.5313 27.5566 10.8633 26.6388C10.202 25.73 10.5077 24.2916 10.1532 23.1998C9.81118 22.1464 8.70703 21.1676 8.70703 20.0002C8.70703 18.8327 9.81118 17.854 10.1532 16.8006C10.5077 15.7088 10.202 14.2703 10.8633 13.3616C11.5313 12.4437 12.9983 12.2931 13.9162 11.6251C14.8249 10.9638 15.4179 9.61137 16.5097 9.25683C17.5631 8.91477 18.8328 9.6492 20.0003 9.6492C21.1677 9.6492 22.4375 8.91477 23.4909 9.25683C24.5827 9.61132 25.1757 10.9637 26.0844 11.6251C27.0023 12.2931 28.4693 12.4437 29.1373 13.3616C29.7986 14.2703 29.4929 15.7088 29.8474 16.8006C30.1894 17.854 31.2936 18.8327 31.2936 20.0002Z" stroke="black" stroke-width="1.41346" stroke-miterlimit="10" stroke-linecap="round" stroke-linejoin="round"/>
<path d="M20.0007 27.5356C24.1627 27.5356 27.5366 24.1617 27.5366 19.9997C27.5366 15.8378 24.1627 12.4639 20.0007 12.4639C15.8388 12.4639 12.4648 15.8378 12.4648 19.9997C12.4648 24.1617 15.8388 27.5356 20.0007 27.5356Z" stroke="black" stroke-width="1.41346" stroke-miterlimit="10" stroke-linecap="round" stroke-linejoin="round"/>
<path d="M21.883 17.4375C21.883 17.4375 20.7246 16.4638 19.3587 16.8752C18.1044 17.2531 17.929 18.6993 18.8364 19.2909C18.8364 19.2909 19.7268 19.6881 20.7144 20.0524C23.0917 20.9293 22.0676 23.2292 20.1538 23.2292C19.1954 23.2292 18.3911 22.8095 17.9043 22.2723M20.0003 23.2255V24.5286M20.0003 15.4717V16.7747" stroke="black" stroke-width="1.41346" stroke-miterlimit="10" stroke-linecap="round" stroke-linejoin="round"/>
</g>
<defs>
<clipPath id="clip0_2928_14342">
<rect width="24" height="24" fill="white" transform="translate(8.00195 8)"/>
</clipPath>
</defs>
</svg>
