<svg width="40" height="40" viewBox="0 0 40 40" fill="none" xmlns="http://www.w3.org/2000/svg">
<g clip-path="url(#clip0_2928_14380)">
<path d="M31.7036 19.4251L29.1357 17.6147C28.6704 17.2867 28.0273 17.6207 28.0273 18.1893V19.2966H15.6973C15.309 19.2966 14.9941 19.6114 14.9941 19.9998C14.9941 20.3882 15.309 20.7029 15.6973 20.7029H28.0272V21.8102C28.0272 22.3826 28.6737 22.7103 29.1355 22.3848L31.7035 20.5744C32.0956 20.2982 32.1036 19.7076 31.7036 19.4251Z" fill="black"/>
<path d="M28.1783 24.5148C27.8423 24.3205 27.4121 24.4352 27.2176 24.7714C25.5659 27.6268 22.4784 29.5438 18.9501 29.5438C13.6877 29.5438 9.4063 25.2624 9.4063 19.9999C9.4063 14.7375 13.6877 10.4561 18.9501 10.4561C22.4807 10.4561 25.5668 12.3748 27.2175 15.2284C27.412 15.5646 27.8423 15.6793 28.1783 15.485C28.5144 15.2906 28.6293 14.8604 28.4349 14.5242C26.5352 11.2403 22.9873 9.0498 18.9501 9.0498C12.898 9.0498 8 13.9473 8 19.9999C8 26.0521 12.8975 30.9501 18.9501 30.9501C22.989 30.9501 26.5361 28.7581 28.4349 25.4756C28.6293 25.1394 28.5145 24.7093 28.1783 24.5148Z" fill="black"/>
</g>
<defs>
<clipPath id="clip0_2928_14380">
<rect width="24" height="24" fill="white" transform="translate(8 8)"/>
</clipPath>
</defs>
</svg>
