<svg width="40" height="40" viewBox="0 0 40 40" fill="none" xmlns="http://www.w3.org/2000/svg">
<g clip-path="url(#clip0_2928_14350)">
<path d="M32.4746 17.2332C32.4746 17.2312 32.4743 17.2293 32.4742 17.2273C32.473 17.1212 32.4478 17.0168 32.4005 16.9218C32.3532 16.8268 32.2851 16.7437 32.2012 16.6787C32.1974 16.6758 32.1942 16.6725 32.1904 16.6697L28.209 13.7164V8.70312C28.209 8.31481 27.8942 8 27.5059 8H13.4434C13.0551 8 12.7403 8.31481 12.7403 8.70312V13.7164L8.75886 16.6696C8.6719 16.7345 8.60106 16.8186 8.55184 16.9153C8.50261 17.012 8.47631 17.1188 8.47498 17.2273C8.47498 17.2292 8.47461 17.2312 8.47461 17.2331L8.47466 17.2337V29.8906C8.47466 31.0537 9.42092 32 10.584 32H30.3652C31.5283 32 32.4746 31.0537 32.4746 29.8906V17.2344L32.4746 17.2337L32.4746 17.2332ZM28.209 15.4673L30.5939 17.2363L28.209 19.0176V15.4673ZM14.1465 9.40625H26.8027V20.0679L20.4746 24.7942L14.1465 20.0679V9.40625ZM12.7403 15.4673V19.0176L10.3554 17.2363L12.7403 15.4673ZM31.0684 29.8906C31.0684 30.2783 30.7529 30.5937 30.3652 30.5937H10.584C10.1963 30.5937 9.8809 30.2783 9.8809 29.8906V18.6371L20.0539 26.2352C20.1786 26.3284 20.3266 26.375 20.4746 26.375C20.6227 26.375 20.7706 26.3284 20.8954 26.2352L31.0684 18.6371V29.8906Z" fill="black"/>
<path d="M24.6934 12.3125H16.2559C15.8675 12.3125 15.5527 12.6273 15.5527 13.0156C15.5527 13.4039 15.8675 13.7188 16.2559 13.7188H24.6934C25.0817 13.7188 25.3965 13.4039 25.3965 13.0156C25.3965 12.6273 25.0817 12.3125 24.6934 12.3125ZM24.6934 15.125H16.2559C15.8675 15.125 15.5527 15.4398 15.5527 15.8281C15.5527 16.2164 15.8675 16.5313 16.2559 16.5313H24.6934C25.0817 16.5313 25.3965 16.2164 25.3965 15.8281C25.3965 15.4398 25.0817 15.125 24.6934 15.125ZM20.4746 17.9375H16.2559C15.8675 17.9375 15.5527 18.2523 15.5527 18.6406C15.5527 19.0289 15.8675 19.3438 16.2559 19.3438H20.4746C20.8629 19.3438 21.1777 19.0289 21.1777 18.6406C21.1777 18.2523 20.8629 17.9375 20.4746 17.9375Z" fill="black"/>
</g>
<defs>
<clipPath id="clip0_2928_14350">
<rect width="24" height="24" fill="white" transform="translate(8.47461 8)"/>
</clipPath>
</defs>
</svg>
