<svg width="21" height="20" viewBox="0 0 21 20" fill="none" xmlns="http://www.w3.org/2000/svg">
<path d="M19.8313 9.583L16.1643 5.583C16.0813 5.5 15.9973 5.417 15.9143 5.417C15.8313 5.417 15.8313 5.5 15.8313 5.667V14.25C15.8313 14.417 15.8313 14.5 15.9143 14.583C15.9973 14.583 16.0813 14.583 16.1643 14.5L19.8313 10.417C20.0813 10.167 20.0813 9.833 19.8313 9.583ZM11.5813 15V11.667H8.33131V15H5.83131C5.83131 15 4.99731 15 5.83131 16.25C5.83131 16.25 9.16431 20 9.99731 20C10.8303 20 14.1643 16.25 14.1643 16.25C14.9973 15.083 14.1643 15.083 14.1643 15.083L11.5813 15ZM11.5813 5V8.333H8.33131V5H5.83131C5.83131 5 4.99731 5 5.83131 3.75C5.83131 3.75 9.16431 0 9.99731 0C10.8303 0 14.1643 3.75 14.1643 3.75C14.9973 4.917 14.1643 4.917 14.1643 4.917L11.5813 5ZM3.74731 5.5L0.164312 9.583C-0.0026875 9.833 -0.0026875 10.167 0.164312 10.333L3.74731 14.417C3.83131 14.5 3.91431 14.5 3.99731 14.5C4.08131 14.5 4.08131 14.417 4.08131 14.25V5.667C4.08131 5.5 4.08131 5.417 3.99731 5.417C3.99731 5.417 3.91431 5.417 3.74731 5.5Z" fill="#FF0000"/>
</svg>
