<svg width="40" height="40" viewBox="0 0 40 40" fill="none" xmlns="http://www.w3.org/2000/svg">
<g clip-path="url(#clip0_2928_14364)">
<path d="M17.542 24.1721L20.8565 14.2284C20.9793 13.86 20.7802 13.4618 20.4118 13.339C20.0435 13.2162 19.6452 13.4153 19.5224 13.7837L16.2079 23.7274C16.0851 24.0958 16.2842 24.494 16.6526 24.6168C16.7263 24.6414 16.8013 24.6531 16.875 24.6531C17.1694 24.6531 17.4437 24.4668 17.542 24.1721ZM22.5097 21.0873C23.6728 21.0873 24.619 20.1411 24.619 18.978C24.619 17.8149 23.6728 16.8686 22.5097 16.8686C21.3465 16.8686 20.4003 17.8149 20.4003 18.978C20.4003 20.1411 21.3465 21.0873 22.5097 21.0873ZM22.5097 18.2748C22.8974 18.2748 23.2128 18.5903 23.2128 18.978C23.2128 19.3657 22.8974 19.6811 22.5097 19.6811C22.122 19.6811 21.8065 19.3657 21.8065 18.978C21.8065 18.5903 22.122 18.2748 22.5097 18.2748ZM14.5547 16.8686C13.3916 16.8686 12.4453 17.8149 12.4453 18.978C12.4453 20.1411 13.3916 21.0873 14.5547 21.0873C15.7178 21.0873 16.6641 20.1411 16.6641 18.978C16.6641 17.8149 15.7178 16.8686 14.5547 16.8686ZM14.5547 19.6811C14.167 19.6811 13.8516 19.3657 13.8516 18.978C13.8516 18.5903 14.167 18.2748 14.5547 18.2748C14.9424 18.2748 15.2578 18.5903 15.2578 18.978C15.2578 19.3657 14.9424 19.6811 14.5547 19.6811Z" fill="black"/>
<path d="M31.8594 16.7187L29.4075 13.4495L29.5031 12.78C29.5186 12.672 29.5086 12.5618 29.4741 12.4582C29.4396 12.3547 29.3814 12.2606 29.3043 12.1834L27.8127 10.6918L29.3042 9.20027C29.5788 8.92572 29.5788 8.4805 29.3042 8.20591C29.0297 7.93136 28.5844 7.93136 28.3098 8.20591L26.8183 9.69747L25.3268 8.20591C25.2496 8.12877 25.1555 8.07064 25.0519 8.03613C24.9484 8.00161 24.8382 7.99164 24.7301 8.00702L17.7695 9.00138C17.6189 9.0229 17.4794 9.09269 17.3718 9.20027L8.75393 17.8181C7.74869 18.8233 7.74869 20.459 8.75393 21.4642L16.0459 28.7562C16.1919 28.9021 16.3548 29.0299 16.5312 29.1368V29.4219C16.5312 30.8434 17.6878 32 19.1094 32H29.4219C30.8434 32 32 30.8434 32 29.4219V17.1406C32 16.9885 31.9506 16.8404 31.8594 16.7187ZM9.74829 20.4698C9.29135 20.0129 9.29135 19.2694 9.74829 18.8125L18.2004 10.3604L24.5809 9.44889L25.8239 10.6919L24.8296 11.6862L24.3324 11.189C24.0578 10.9145 23.6126 10.9145 23.338 11.189C23.0634 11.4636 23.0634 11.9088 23.338 12.1834L25.3268 14.1722C25.4641 14.3095 25.644 14.3781 25.8239 14.3781C26.0038 14.3781 26.1838 14.3095 26.3211 14.1722C26.5957 13.8976 26.5957 13.4524 26.3211 13.1778L25.8239 12.6806L26.8182 11.6862L28.0612 12.9292L27.1497 19.3098L18.6976 27.7619C18.4763 27.9832 18.182 28.1051 17.869 28.1051C17.5559 28.1051 17.2616 27.9832 17.0403 27.7619L9.74829 20.4698ZM30.5937 29.4219C30.5937 30.068 30.068 30.5937 29.4219 30.5937H19.1094C18.4923 30.5937 17.9855 30.1143 17.941 29.5084C18.577 29.4908 19.2077 29.2406 19.6919 28.7562L28.3098 20.1384C28.4174 20.0308 28.4872 19.8912 28.5087 19.7406L29.1262 15.4183L30.5937 17.375V29.4219Z" fill="black"/>
</g>
<defs>
<clipPath id="clip0_2928_14364">
<rect width="24" height="24" fill="white" transform="translate(8 8)"/>
</clipPath>
</defs>
</svg>
