<svg width="40" height="40" viewBox="0 0 40 40" fill="none" xmlns="http://www.w3.org/2000/svg">
<g clip-path="url(#clip0_2928_14357)">
<path d="M29.8926 30.4382H10.1113C8.94822 30.4382 8.00195 29.4919 8.00195 28.3288V11.6719C8.00195 10.5088 8.94822 9.5625 10.1113 9.5625H29.8926C31.0557 9.5625 32.002 10.5088 32.002 11.6719V28.3288C32.002 29.4919 31.0557 30.4382 29.8926 30.4382ZM10.1113 10.9688C9.72362 10.9688 9.4082 11.2842 9.4082 11.6719V28.3288C9.4082 28.7165 9.72362 29.0319 10.1113 29.0319H29.8926C30.2803 29.0319 30.5957 28.7165 30.5957 28.3288V11.6719C30.5957 11.2842 30.2803 10.9688 29.8926 10.9688H10.1113Z" fill="black"/>
<path d="M20.5158 15.7725H26.8128C27.2011 15.7725 27.5159 15.4576 27.5159 15.0693C27.5159 14.681 27.2011 14.3662 26.8128 14.3662H20.5158C20.1274 14.3662 19.8126 14.681 19.8126 15.0693C19.8126 15.4576 20.1274 15.7725 20.5158 15.7725ZM20.5158 18.5851H26.8128C27.2011 18.5851 27.5159 18.2703 27.5159 17.882C27.5159 17.4937 27.2011 17.1789 26.8128 17.1789H20.5158C20.1274 17.1789 19.8126 17.4937 19.8126 17.882C19.8126 18.2703 20.1274 18.5851 20.5158 18.5851ZM14.0995 18.4258C14.2314 18.5576 14.4102 18.6317 14.5967 18.6317C14.7831 18.6317 14.962 18.5576 15.0938 18.4258L17.9531 15.5665C18.2276 15.292 18.2276 14.8468 17.9531 14.5722C17.6785 14.2976 17.2333 14.2976 16.9587 14.5722L14.5967 16.9343L13.6867 16.0243C13.4121 15.7497 12.9669 15.7497 12.6923 16.0243C12.4177 16.2988 12.4177 16.744 12.6923 17.0186L14.0995 18.4258ZM20.5158 25.5848H26.8128C27.2011 25.5848 27.5159 25.27 27.5159 24.8817C27.5159 24.4934 27.2011 24.1786 26.8128 24.1786H20.5158C20.1274 24.1786 19.8126 24.4934 19.8126 24.8817C19.8126 25.27 20.1274 25.5848 20.5158 25.5848ZM20.5158 22.7256H26.8128C27.2011 22.7256 27.5159 22.4108 27.5159 22.0225C27.5159 21.6342 27.2011 21.3194 26.8128 21.3194H20.5158C20.1274 21.3194 19.8126 21.6342 19.8126 22.0225C19.8126 22.4108 20.1274 22.7256 20.5158 22.7256ZM12.6924 25.4279C12.8297 25.5652 13.0096 25.6338 13.1895 25.6338C13.3694 25.6338 13.5494 25.5652 13.6867 25.4279L14.6436 24.4709L15.6006 25.4279C15.7379 25.5652 15.9178 25.6338 16.0977 25.6338C16.2776 25.6338 16.4576 25.5652 16.5949 25.4279C16.8695 25.1533 16.8695 24.7081 16.5949 24.4335L15.6379 23.4766L16.5949 22.5196C16.8695 22.2451 16.8695 21.7998 16.5949 21.5252C16.3204 21.2507 15.8751 21.2507 15.6005 21.5252L14.6436 22.4822L13.6866 21.5252C13.4121 21.2507 12.9669 21.2507 12.6923 21.5252C12.4177 21.7998 12.4177 22.245 12.6923 22.5196L13.6492 23.4766L12.6923 24.4335C12.4178 24.7081 12.4178 25.1533 12.6924 25.4279Z" fill="black"/>
</g>
<defs>
<clipPath id="clip0_2928_14357">
<rect width="24" height="24" fill="white" transform="translate(8.00195 8)"/>
</clipPath>
</defs>
</svg>
