<svg width="40" height="40" viewBox="0 0 40 40" fill="none" xmlns="http://www.w3.org/2000/svg">
<path d="M19.9996 23.4942C21.2689 23.4942 22.2979 22.4652 22.2979 21.1958C22.2979 19.9265 21.2689 18.8975 19.9996 18.8975C18.7302 18.8975 17.7012 19.9265 17.7012 21.1958C17.7012 22.4652 18.7302 23.4942 19.9996 23.4942Z" stroke="black" stroke-width="1.4121" stroke-miterlimit="10" stroke-linecap="round" stroke-linejoin="round"/>
<path d="M31.293 21.1958C31.293 21.1958 26.2365 27.876 19.999 27.876C13.7615 27.876 8.70508 21.1958 8.70508 21.1958C8.70508 21.1958 13.7616 14.5156 19.9991 14.5156C26.2365 14.5156 31.293 21.1958 31.293 21.1958Z" stroke="black" stroke-width="1.4121" stroke-miterlimit="10" stroke-linecap="round" stroke-linejoin="round"/>
<path d="M19.9985 27.876C23.6879 27.876 26.6787 24.8852 26.6787 21.1958C26.6787 17.5064 23.6879 14.5156 19.9985 14.5156C16.3092 14.5156 13.3184 17.5064 13.3184 21.1958C13.3184 24.8852 16.3092 27.876 19.9985 27.876Z" stroke="black" stroke-width="1.4121" stroke-miterlimit="10" stroke-linecap="round" stroke-linejoin="round"/>
<path d="M14.7774 15.9746L13.584 14.3104M25.22 15.9746L26.4134 14.3104M19.9987 14.4775V12.124" stroke="black" stroke-width="1.4121" stroke-miterlimit="10" stroke-linecap="round" stroke-linejoin="round"/>
</svg>
