<svg width="40" height="40" viewBox="0 0 40 40" fill="none" xmlns="http://www.w3.org/2000/svg">
<path d="M20 29.3523C19.6583 29.3523 19.3289 29.2285 19.0722 29.0036C18.1026 28.1558 17.1679 27.3591 16.3432 26.6564L16.339 26.6527C13.9211 24.5923 11.8331 22.8128 10.3804 21.06C8.75642 19.1004 8 17.2424 8 15.2127C8 13.2407 8.67622 11.4213 9.90392 10.0896C11.1463 8.74212 12.851 8 14.7046 8C16.09 8 17.3587 8.438 18.4755 9.30172C19.039 9.73765 19.5499 10.2712 20 10.8936C20.4502 10.2712 20.9609 9.73765 21.5247 9.30172C22.6415 8.438 23.9102 8 25.2956 8C27.149 8 28.8538 8.74212 30.0962 10.0896C31.3239 11.4213 32 13.2407 32 15.2127C32 17.2424 31.2437 19.1004 29.6198 21.0598C28.167 22.8128 26.0792 24.5921 23.6617 26.6524C22.8355 27.3562 21.8993 28.1542 20.9276 29.004C20.6708 29.2286 20.3412 29.3524 20 29.3523ZM14.7046 9.40587C13.2483 9.40587 11.9106 9.98707 10.9374 11.0425C9.94972 12.1138 9.40568 13.5948 9.40568 15.2127C9.40568 16.9198 10.0401 18.4465 11.4627 20.163C12.8376 21.8221 14.8827 23.5649 17.2507 25.5829L17.255 25.5865C18.0828 26.292 19.0213 27.0918 19.998 27.9458C20.9805 27.0902 21.9204 26.2891 22.7498 25.5825C25.1176 23.5645 27.1625 21.8221 28.5374 20.163C29.9598 18.4465 30.5943 16.9198 30.5943 15.2127C30.5943 13.5948 30.0502 12.1138 29.0626 11.0425C28.0896 9.98707 26.7516 9.40587 25.2956 9.40587C24.2288 9.40587 23.2493 9.74501 22.3846 10.4137C21.6139 11.0099 21.077 11.7635 20.7622 12.2909C20.6004 12.5621 20.3155 12.7239 20 12.7239C19.6845 12.7239 19.3996 12.5621 19.2377 12.2909C18.9232 11.7635 18.3863 11.0099 17.6154 10.4137C16.7506 9.74501 15.7712 9.40587 14.7046 9.40587Z" fill="black"/>
</svg>
