<svg width="25" height="25" viewBox="0 0 25 25" fill="none" xmlns="http://www.w3.org/2000/svg">
<path d="M7.29159 21.875H17.7083M12.4999 3.125V21.875M3.12492 7.29167H5.20825C7.29159 7.29167 10.4166 6.25 12.4999 5.20833C14.5833 6.25 17.7083 7.29167 19.7916 7.29167H21.8749M16.6666 16.6667L19.7916 8.33333L22.9166 16.6667C22.0103 17.3437 20.9166 17.7083 19.7916 17.7083C18.6666 17.7083 17.5728 17.3437 16.6666 16.6667ZM2.08325 16.6667L5.20825 8.33333L8.33325 16.6667C7.427 17.3437 6.33325 17.7083 5.20825 17.7083C4.08325 17.7083 2.9895 17.3437 2.08325 16.6667Z" stroke="black" stroke-width="2" stroke-linecap="round" stroke-linejoin="round"/>
</svg>
